HIERARCHY
ROOT RootJoint
{
    OFFSET   0.000000   0.000000   0.000000
    CHANNELS 6 Xposition Yposition Zposition Xrotation Yrotation Zrotation
    JOINT pelvis_lowerback
    {
        OFFSET   0.000000   0.093605   0.000000
        CHANNELS 3 Xrotation Yrotation Zrotation
        JOINT lowerback_torso
        {
            OFFSET   0.000000   0.100000   0.000000
            CHANNELS 3 Xrotation Yrotation Zrotation
            JOINT torso_head
            {
                OFFSET   0.000000   0.282350   0.000000
                CHANNELS 3 Xrotation Yrotation Zrotation
                End Site
                {
                    OFFSET   0.000000   0.192650   0.000000
                }
            }
            JOINT rTorso_Clavicle
            {
                OFFSET  -0.001000   0.157500   0.000000
                CHANNELS 3 Xrotation Yrotation Zrotation
                JOINT rShoulder
                {
                    OFFSET  -0.117647   0.000000   0.000000
                    CHANNELS 3 Xrotation Yrotation Zrotation
                    JOINT rElbow
                    {
                        OFFSET  -0.245000   0.000000   0.000000
                        CHANNELS 3 Xrotation Yrotation Zrotation
                        JOINT rWrist
                        {
                            OFFSET  -0.240000   0.000000   0.000000
                            CHANNELS 3 Xrotation Yrotation Zrotation
                            End Site
                            {
                                OFFSET  -0.116353  -0.002500   0.000000
                            }
                        }
                    }
                }
            }
            JOINT lTorso_Clavicle
            {
                OFFSET   0.001000   0.157500   0.000000
                CHANNELS 3 Xrotation Yrotation Zrotation
                JOINT lShoulder
                {
                    OFFSET   0.117647   0.000000   0.000000
                    CHANNELS 3 Xrotation Yrotation Zrotation
                    JOINT lElbow
                    {
                        OFFSET   0.245000   0.000000   0.000000
                        CHANNELS 3 Xrotation Yrotation Zrotation
                        JOINT lWrist
                        {
                            OFFSET   0.240000   0.000000   0.000000
                            CHANNELS 3 Xrotation Yrotation Zrotation
                            End Site
                            {
                                OFFSET   0.116353  -0.002500   0.000000
                            }
                        }
                    }
                }
            }
        }
    }
    JOINT rHip
    {
        OFFSET  -0.100000  -0.051395   0.000000
        CHANNELS 3 Xrotation Yrotation Zrotation
        JOINT rKnee
        {
            OFFSET   0.000000  -0.410000   0.000000
            CHANNELS 3 Xrotation Yrotation Zrotation
            JOINT rAnkle
            {
                OFFSET   0.000000  -0.390000   0.000000
                CHANNELS 3 Xrotation Yrotation Zrotation
                JOINT rToeJoint
                {
                    OFFSET   0.000000  -0.050000   0.130000
                    CHANNELS 3 Xrotation Yrotation Zrotation
                    End Site
                    {
                        OFFSET  -0.010000   0.002000   0.060000
                    }
                }
            }
        }
    }
    JOINT lHip
    {
        OFFSET   0.100000  -0.051395   0.000000
        CHANNELS 3 Xrotation Yrotation Zrotation
        JOINT lKnee
        {
            OFFSET   0.000000  -0.410000   0.000000
            CHANNELS 3 Xrotation Yrotation Zrotation
            JOINT lAnkle
            {
                OFFSET   0.000000  -0.390000   0.000000
                CHANNELS 3 Xrotation Yrotation Zrotation
                JOINT lToeJoint
                {
                    OFFSET   0.000000  -0.050000   0.130000
                    CHANNELS 3 Xrotation Yrotation Zrotation
                    End Site
                    {
                        OFFSET   0.010000   0.002000   0.060000
                    }
                }
            }
        }
    }
}
MOTION
Frames: 12
Frame Time:   0.008333
 -2.088893   0.978307   3.818043   5.863794  22.736129  -0.630585  -1.204226  -0.023890  -0.754749  -7.518797  -2.042522   0.660263   2.391580  -2.170101  -1.640155 -10.911720  -4.085105 -28.977453 -48.222231   6.944644  -6.457154  -0.145577  46.432861   0.116762  -1.478273   3.040643 -23.200777  -9.208183   3.877086  30.313197 -42.002218 -11.623977   7.471069  -0.208747 -50.472300  -0.137346   0.904133  -7.081910  28.814414 -14.113847   4.148909 -18.635086  28.550662   0.001912   0.006298  10.213341  -0.025895   4.834457  -0.361193   0.002632   0.000923 -14.600659  -5.788759  14.738631  31.509580  -0.017288  -0.007480   7.699239  -1.456481  -3.155106  -6.132410  -0.015372  -0.001253
 -2.089446   0.969839   3.819584   5.760980  22.866372  -0.701416  -1.056236  -0.031410  -0.800159  -7.748106  -2.011577   0.669010   2.551610  -2.076971  -1.447362 -11.191304  -3.670428 -29.323870 -48.512104   7.871444  -6.862720  -0.166501  49.089809   0.138892  -1.517846   2.864829 -23.296320  -9.538692   3.341542  30.918129 -42.619722 -12.690302   7.985563  -0.231536 -52.797348  -0.159978   0.925333  -7.006480  28.744795 -14.278126   4.656598 -18.437996  29.625480   0.003292   0.009935   8.240548   0.061325   4.703192  -0.252447   0.002472   0.001384 -14.851538  -6.471850  14.865824  33.072742  -0.018137  -0.009753   5.946652  -1.463090  -2.683813  -5.950567  -0.013548  -0.001570
 -2.090000   0.960737   3.821202   5.629362  22.978694  -0.762742  -0.906928  -0.033108  -0.852703  -7.948750  -1.972882   0.684221   2.699907  -1.988330  -1.266090 -11.420510  -3.243183 -29.680568 -48.769115   8.817764  -7.235398  -0.183348  51.646978   0.156415  -1.417306   3.070364 -23.414117  -9.840207   2.807779  31.547182 -43.196133 -13.767275   8.488250  -0.250065 -55.029141  -0.177797   1.068143  -7.195336  28.780328 -14.435894   5.121008 -18.203892  30.727894   0.004080   0.012533   6.388253   0.147968   4.585244  -0.252042   0.001982   0.001105 -15.065411  -7.116033  14.973208  34.637033  -0.018579  -0.011389   4.307282  -1.479790  -2.243057  -5.841050  -0.011533  -0.001589
 -2.090533   0.951039   3.822877   5.496591  23.087282  -0.816298  -0.768725  -0.029484  -0.908679  -8.127469  -1.929383   0.697504   2.833537  -1.905390  -1.099189 -11.611950  -2.818578 -30.053071 -48.998179   9.745174  -7.584215  -0.195789  54.054758   0.169178  -1.258357   3.419108 -23.524185 -10.112951   2.290220  32.183251 -43.728819 -14.815466   8.970154  -0.262523 -57.129846  -0.189712   1.267291  -7.491827  28.866927 -14.580819   5.545284 -17.953756  31.774739   0.004420   0.014150   4.660695   0.233457   4.478949  -0.250070   0.001592   0.000891 -15.255417  -7.714394  15.052226  36.118383  -0.018379  -0.012201   2.778647  -1.508142  -1.832784  -5.738412  -0.009817  -0.001575
 -2.091045   0.940756   3.824595   5.372594  23.199258  -0.864886  -0.640430  -0.021856  -0.965821  -8.291533  -1.883149   0.707266   2.955820  -1.827736  -0.944746 -11.778340  -2.407856 -30.428597 -49.204843  10.637308  -7.912785  -0.204339  56.312692   0.178010  -1.076458   3.820411 -23.633708 -10.363877   1.797609  32.806403 -44.221720 -15.818017   9.427195  -0.269148 -59.099109  -0.196387   1.488599  -7.827703  28.985063 -14.715854   5.935011 -17.695075  32.755494   0.004477   0.015066   3.048752   0.316939   4.383002  -0.246934   0.001281   0.000726 -15.433041  -8.270594  15.104482  37.505168  -0.017659  -0.012348   1.352315  -1.545796  -1.451309  -5.643566  -0.008347  -0.001527
 -2.091534   0.929891   3.826347   5.260019  23.317747  -0.909887  -0.521156  -0.011114  -1.023166  -8.444650  -1.835431   0.713457   3.069438  -1.755002  -0.801236 -11.927076  -2.016936 -30.795799 -49.392727  11.485176  -8.221925  -0.209524  58.426124   0.183655  -0.885886   4.238614 -23.748495 -10.597347   1.334032  33.403361 -44.678360 -16.766507   9.857009  -0.270592 -60.941515  -0.198672   1.717001  -8.173871  29.125717 -14.842205   6.293850 -17.432388  33.671832   0.004361   0.015482   1.544457   0.397898   4.296351  -0.243564   0.001031   0.000596 -15.602916  -8.788066  15.133832  38.799355  -0.016580  -0.012012   0.021169  -1.590645  -1.096841  -5.556835  -0.007085  -0.001451
 -2.092003   0.918438   3.828133   5.159082  23.443898  -0.952023  -0.410806   0.002066  -1.080265  -8.589179  -1.787054   0.716352   3.175918  -1.686862  -0.667581 -12.062404  -1.648542 -31.146595 -49.564308  12.284149  -8.511616  -0.211861  60.401924   0.186734  -0.693944   4.656039 -23.869770 -10.815840   0.900814  33.966200 -45.101707 -17.657291  10.258449  -0.267654 -62.663110  -0.197392   1.944705  -8.515893  29.281837 -14.960261   6.624528 -17.169163  34.527646   0.004149   0.015538   0.140561   0.475988   4.218079  -0.240234   0.000830   0.000492 -15.766553  -9.269678  15.144402  40.006042  -0.015279  -0.011351  -1.221202  -1.640893  -0.767607  -5.477828  -0.006002  -0.001355
 -2.092677   0.906185   3.829561   4.974873  23.555152  -0.968835  -0.060865   0.054093  -1.103278  -8.809310  -1.801411   0.680749   3.102625  -1.635093  -0.501869 -12.297863  -1.269273 -31.446758 -49.783435  12.998836  -8.632799  -0.223400  62.705778   0.200876  -0.617683   4.839712 -23.913075 -11.051956   0.499313  34.525659 -45.730170 -18.340833  10.486737  -0.276611 -64.604606  -0.209038   1.997996  -8.753180  29.247303 -15.369551   6.685924 -16.884669  36.153979   0.002012   0.013790  -2.123079   0.418319   4.116333   0.057137   0.000641   0.000729 -16.186538  -9.448242  15.175518  41.902828  -0.012293  -0.006497  -2.573963  -1.528224  -0.368354  -5.300724  -0.005445  -0.000750
 -2.092574   0.894341   3.830815   4.803938  23.603024  -1.145876   0.237047   0.157472  -0.842987  -9.038103  -1.797917   0.857455   3.020283  -1.450062  -0.560539 -12.486389  -0.876087 -31.791477 -49.977761  13.763135  -8.757988  -0.230896  64.929603   0.212485  -0.414447   5.326896 -23.991452 -11.236391   0.118163  34.303234 -46.342964 -18.742681  10.529518  -0.279983 -66.529942  -0.222834   2.299901  -9.428848  29.458517 -15.667051   6.701234 -16.733110  38.337979   0.003931   0.009457  -4.862813   0.222593   4.121584  -7.152382  -0.006955   0.012414 -16.566318  -9.604601  15.245767  43.777973  -0.008120  -0.004220  -3.830418  -1.426959   0.009183  -5.130979  -0.004767  -0.000402
 -2.092381   0.882611   3.831963   4.674874  23.569083  -1.374329   0.504182   0.284173  -0.583382  -9.266986  -1.769188   1.004769   2.941437  -1.306817  -0.462544 -12.650282  -0.523186 -31.991141 -50.152659  14.412309  -8.824761  -0.233007  66.994440   0.218820  -0.207417   5.825509 -24.041225 -11.383724  -0.196370  34.149870 -46.881546 -19.085284  10.536926  -0.275332 -68.269773  -0.227163   2.495537  -9.917759  29.603332 -15.950023   6.706864 -16.572231  40.192594   0.004860   0.005021  -7.396996   0.142488   4.152615 -13.885371  -0.012987   0.016488 -16.925141  -9.731833  15.302770  45.547022  -0.004479  -0.004007  -5.001785  -1.342000   0.363381  -4.971568  -0.004112  -0.000276
 -2.092680   0.871663   3.833246   4.569948  23.530031  -1.459913   0.765931   0.385248  -0.555446  -9.500102  -1.745455   1.075424   2.868664  -1.178454  -0.349072 -12.805532  -0.223823 -32.060764 -50.310405  14.962593  -8.853196  -0.233196  68.929659   0.222054  -0.004757   6.311188 -24.081177 -11.516619  -0.481467  34.013094 -47.376574 -19.410472  10.543496  -0.267723 -69.892358  -0.228026   2.674172 -10.365435  29.708631 -16.220159   6.736367 -16.527576  41.846182   0.004739   0.001829  -9.755869   0.036118   4.166193 -20.040093  -0.017595   0.019281 -17.263476  -9.898147  15.560884  47.665579  -0.006829  -0.000906  -6.739938  -0.977480   0.643411 -13.257761   0.035158  -0.028323
 -2.093117   0.861372   3.834483   4.470543  23.487915  -1.483183   1.026462   0.469035  -0.577780  -9.713437  -1.721176   1.073680   2.800950  -1.061136  -0.248541 -12.954025   0.046238 -32.094112 -50.458442  15.450911  -8.869670  -0.231580  70.726829   0.222450   0.175099   6.741460 -24.116620 -11.635227  -0.741138  33.889504 -47.832652 -19.706571  10.545001  -0.258342 -71.403063  -0.226109   2.589157 -10.343079  29.775616 -16.490656   6.774384 -16.536649  43.358337   0.004261  -0.000603 -11.957408  -0.072064   4.174055 -25.611309  -0.021289   0.020508 -17.584899 -10.053399  15.798671  49.511963  -0.008727   0.001710  -8.306461  -0.832993   0.860895 -20.231553   0.061062  -0.025803
